<?xml version="1.0" standalone="no"?>
<!DOCTYPE svg PUBLIC "-//W3C//DTD SVG 20010904//EN"
 "http://www.w3.org/TR/2001/REC-SVG-20010904/DTD/svg10.dtd">
<svg version="1.0" xmlns="http://www.w3.org/2000/svg"
 width="400.000000pt" height="400.000000pt" viewBox="0 0 400.000000 400.000000"
 preserveAspectRatio="xMidYMid meet">
<metadata>
Created by potrace 1.14, written by Peter Selinger 2001-2017
</metadata>
<g transform="translate(0.000000,400.000000) scale(0.100000,-0.100000)"
fill="#000000" stroke="none">
<path d="M1780 3578 c0 -4 -19 -8 -42 -8 -43 0 -125 -22 -252 -66 -38 -13 -71
-22 -74 -19 -2 2 -11 -3 -19 -11 -8 -8 -18 -12 -23 -9 -4 3 -13 -2 -20 -10 -7
-8 -18 -15 -24 -15 -11 0 -68 -28 -142 -71 -74 -42 -235 -170 -300 -237 -34
-35 -67 -61 -73 -58 -7 4 -9 1 -5 -8 3 -9 -3 -20 -15 -28 -12 -7 -21 -17 -21
-21 0 -9 -47 -75 -65 -92 -35 -33 -175 -285 -175 -316 0 -6 -5 -7 -12 -3 -7 4
-8 3 -4 -5 4 -6 -3 -44 -17 -84 -38 -110 -59 -186 -69 -252 -13 -76 -18 -485
-6 -485 4 0 8 -20 8 -45 0 -24 4 -54 9 -67 5 -13 14 -43 21 -68 7 -25 23 -77
37 -117 14 -40 21 -78 17 -84 -4 -7 -3 -10 2 -6 5 3 21 -21 34 -54 14 -32 28
-59 33 -59 4 0 7 -7 7 -16 0 -8 11 -32 25 -52 14 -20 25 -41 25 -45 0 -5 20
-34 45 -65 96 -120 126 -163 119 -174 -4 -7 -3 -8 5 -4 7 5 42 -22 92 -73 44
-45 82 -81 85 -81 3 0 39 -26 81 -57 41 -32 94 -69 116 -82 66 -37 170 -88
195 -96 12 -3 19 -11 16 -17 -4 -6 -2 -8 4 -4 6 3 44 -4 84 -18 116 -38 219
-65 273 -72 76 -9 455 -11 461 -2 3 4 24 8 46 8 41 0 121 21 251 66 37 13 75
20 83 17 9 -3 14 0 12 8 -2 8 4 14 13 14 9 0 23 5 30 11 8 5 34 19 59 29 25
11 47 22 50 25 3 3 25 16 50 29 66 36 243 174 310 243 37 37 64 57 71 52 7 -4
9 -3 5 4 -5 8 78 132 103 152 6 5 41 58 82 125 24 39 82 153 85 168 1 4 2 12
3 18 0 5 6 7 13 3 8 -5 9 -2 5 9 -3 9 4 47 17 84 40 114 59 185 69 248 12 81
17 474 6 481 -5 3 -9 25 -9 50 0 25 -7 61 -16 82 -8 20 -14 37 -14 37 4 0 -15
69 -36 133 -13 40 -21 78 -18 84 4 7 2 8 -4 4 -7 -4 -13 -2 -13 3 -3 20 -5 25
-41 96 -69 134 -89 167 -146 235 -53 62 -92 122 -86 132 4 7 3 8 -5 4 -8 -5
-36 17 -77 58 -105 106 -297 244 -404 290 -25 11 -52 25 -60 32 -15 12 -20 14
-41 14 -5 0 -7 5 -3 12 4 7 3 8 -4 4 -6 -4 -44 4 -84 17 -129 43 -192 61 -253
69 -80 12 -485 17 -485 6z"/>
</g>
</svg>
